<svg
   xmlns:dc="http://purl.org/dc/elements/1.1/"
   xmlns:cc="http://creativecommons.org/ns#"
   xmlns:rdf="http://www.w3.org/1999/02/22-rdf-syntax-ns#"
   xmlns:svg="http://www.w3.org/2000/svg"
   xmlns="http://www.w3.org/2000/svg"
   viewBox="0 0 1280 746.66669"
   height="746.66669"
   width="1280"
   xml:space="preserve"
   id="svg2"
   version="1.1"><metadata
     id="metadata8"><rdf:RDF><cc:Work
         rdf:about=""><dc:format>image/svg+xml</dc:format><dc:type
           rdf:resource="http://purl.org/dc/dcmitype/StillImage" /></cc:Work></rdf:RDF></metadata><defs
     id="defs6"><clipPath
       id="clipPath22"
       clipPathUnits="userSpaceOnUse"><path
         id="path20"
         d="M 0,560 H 960 V 0 H 0 Z" /></clipPath><clipPath
       id="clipPath42"
       clipPathUnits="userSpaceOnUse"><path
         id="path40"
         d="M 0,560 H 960 V 0 H 0 Z" /></clipPath></defs><g
     transform="matrix(1.3333333,0,0,-1.3333333,0,746.66667)"
     id="g10"><g
       transform="translate(366.1685,355.1953)"
       id="g12"><path
         id="path14"
         style="fill:#E57E00;fill-opacity:1;fill-rule:nonzero;stroke:none"
         d="m 0,0 h 19.325 l -78.7,-150 H -86.873 L -165.625,0 h 21.77 l 71.953,-137.448 z" /></g><g
       id="g16"><g
         clip-path="url(#clipPath22)"
         id="g18"><g
           transform="translate(450.2505,218.4766)"
           id="g24"><path
             id="path26"
             style="fill:#E57E00;fill-opacity:1;fill-rule:nonzero;stroke:none"
             d="m 0,0 c 8.268,0 15.186,0.385 20.752,1.155 5.566,0.771 10.042,1.927 13.428,3.468 3.384,1.541 5.794,3.467 7.226,5.78 1.432,2.312 2.149,5.01 2.149,8.092 0,3.083 -0.83,5.699 -2.491,7.851 -1.66,2.151 -4.427,3.902 -8.3,5.25 -3.874,1.349 -9.001,2.328 -15.381,2.937 -6.381,0.612 -14.258,0.916 -23.633,0.916 -9.375,0 -16.943,-0.162 -22.705,-0.482 -5.762,-0.321 -10.205,-1.059 -13.33,-2.215 -3.125,-1.157 -5.225,-2.858 -6.299,-5.106 -1.074,-2.248 -1.611,-5.298 -1.611,-9.151 0,-3.854 0.569,-6.985 1.709,-9.393 1.138,-2.408 3.466,-4.287 6.982,-5.635 3.516,-1.349 8.577,-2.263 15.186,-2.745 C -19.711,0.239 -10.938,0 0,0 m 43.555,2.148 c -0.196,-0.781 -1.66,-2.734 -4.395,-5.859 -1.953,-2.344 -4.557,-4.411 -7.812,-6.201 -3.256,-1.791 -7.602,-3.191 -13.037,-4.199 -5.437,-1.009 -12.582,-1.514 -21.436,-1.514 -11.784,0 -21.843,0.603 -30.176,1.807 -8.334,1.204 -15.137,3.059 -20.41,5.566 -5.273,2.506 -9.131,5.713 -11.572,9.619 -2.442,3.906 -3.662,8.561 -3.662,13.965 0,5.664 0.667,10.465 2.002,14.404 1.333,3.939 3.286,7.243 5.859,9.912 2.571,2.669 5.679,4.752 9.326,6.25 3.646,1.498 7.796,2.637 12.451,3.418 4.654,0.782 9.749,1.27 15.284,1.465 5.532,0.196 11.425,0.293 17.675,0.293 8.919,0 16.373,-0.375 22.364,-1.123 5.989,-0.749 10.888,-1.694 14.697,-2.832 3.808,-1.14 6.689,-2.36 8.642,-3.662 1.954,-1.303 3.353,-2.507 4.2,-3.613 0,7.29 -0.31,13.509 -0.928,18.652 -0.619,5.142 -1.628,9.439 -3.027,12.891 -1.401,3.45 -3.207,6.201 -5.42,8.252 -2.214,2.05 -4.932,3.596 -8.155,4.638 -3.222,1.041 -6.982,1.709 -11.279,2.002 -4.297,0.293 -9.213,0.44 -14.746,0.44 -8.594,0 -15.723,-0.212 -21.387,-0.635 -5.664,-0.424 -10.156,-1.254 -13.476,-2.49 -3.321,-1.238 -5.664,-2.947 -7.032,-5.127 -1.367,-2.182 -2.05,-5.029 -2.05,-8.545 h -18.75 c 0,5.923 1.057,10.937 3.174,15.039 2.114,4.102 5.63,7.437 10.546,10.01 4.915,2.571 11.377,4.443 19.385,5.615 8.008,1.172 17.871,1.758 29.59,1.758 11.458,0 21.158,-0.945 29.102,-2.832 7.942,-1.889 14.371,-5.21 19.287,-9.961 4.915,-4.753 8.463,-11.15 10.645,-19.19 2.18,-8.041 3.271,-18.213 3.271,-30.517 v -53.125 h -18.75 z" /></g><g
           transform="translate(606.0127,218.4766)"
           id="g28"><path
             id="path30"
             style="fill:#E57E00;fill-opacity:1;fill-rule:nonzero;stroke:none"
             d="m 0,0 c 8.268,0 15.186,0.385 20.752,1.155 5.566,0.771 10.042,1.927 13.428,3.468 3.384,1.541 5.794,3.467 7.226,5.78 1.432,2.312 2.149,5.01 2.149,8.092 0,3.083 -0.83,5.699 -2.491,7.851 -1.66,2.151 -4.427,3.902 -8.3,5.25 -3.874,1.349 -9.001,2.328 -15.381,2.937 -6.381,0.612 -14.258,0.916 -23.633,0.916 -9.375,0 -16.943,-0.162 -22.705,-0.482 -5.762,-0.321 -10.205,-1.059 -13.33,-2.215 -3.125,-1.157 -5.225,-2.858 -6.299,-5.106 -1.074,-2.248 -1.611,-5.298 -1.611,-9.151 0,-3.854 0.569,-6.985 1.709,-9.393 1.138,-2.408 3.466,-4.287 6.982,-5.635 3.516,-1.349 8.577,-2.263 15.186,-2.745 C -19.711,0.239 -10.938,0 0,0 m 43.555,2.148 c -0.196,-0.781 -1.66,-2.734 -4.395,-5.859 -1.953,-2.344 -4.557,-4.411 -7.812,-6.201 -3.256,-1.791 -7.602,-3.191 -13.037,-4.199 -5.437,-1.009 -12.582,-1.514 -21.436,-1.514 -11.784,0 -21.843,0.603 -30.176,1.807 -8.334,1.204 -15.137,3.059 -20.41,5.566 -5.273,2.506 -9.131,5.713 -11.572,9.619 -2.442,3.906 -3.662,8.561 -3.662,13.965 0,5.664 0.667,10.465 2.002,14.404 1.334,3.939 3.287,7.243 5.859,9.912 2.571,2.669 5.68,4.752 9.326,6.25 3.646,1.498 7.796,2.637 12.451,3.418 4.655,0.782 9.749,1.27 15.284,1.465 5.533,0.196 11.425,0.293 17.675,0.293 8.919,0 16.373,-0.375 22.364,-1.123 5.989,-0.749 10.888,-1.694 14.697,-2.832 3.808,-1.14 6.689,-2.36 8.642,-3.662 1.954,-1.303 3.353,-2.507 4.2,-3.613 0,7.29 -0.31,13.509 -0.928,18.652 -0.619,5.142 -1.628,9.439 -3.027,12.891 -1.401,3.45 -3.207,6.201 -5.42,8.252 -2.214,2.05 -4.932,3.596 -8.155,4.638 -3.222,1.041 -6.982,1.709 -11.279,2.002 -4.297,0.293 -9.213,0.44 -14.746,0.44 -8.594,0 -15.723,-0.212 -21.387,-0.635 -5.664,-0.424 -10.156,-1.254 -13.476,-2.49 -3.321,-1.238 -5.664,-2.947 -7.032,-5.127 -1.367,-2.182 -2.05,-5.029 -2.05,-8.545 h -18.75 c 0,5.923 1.057,10.937 3.174,15.039 2.115,4.102 5.63,7.437 10.546,10.01 4.915,2.571 11.377,4.443 19.385,5.615 8.008,1.172 17.871,1.758 29.59,1.758 11.458,0 21.158,-0.945 29.102,-2.832 7.942,-1.889 14.371,-5.21 19.287,-9.961 4.915,-4.753 8.463,-11.15 10.644,-19.19 2.181,-8.041 3.272,-18.213 3.272,-30.517 v -53.125 h -18.75 z" /></g><g
           transform="translate(794.0986,289.5703)"
           id="g32"><path
             id="path34"
             style="fill:#E57E00;fill-opacity:1;fill-rule:nonzero;stroke:none"
             d="m 0,0 c 10.286,0 19.107,-0.426 26.465,-1.275 7.356,-0.85 13.557,-2.109 18.603,-3.777 5.045,-1.668 9.066,-3.745 12.061,-6.229 2.994,-2.484 5.306,-5.313 6.934,-8.484 1.626,-3.171 2.685,-6.718 3.173,-10.641 0.489,-3.924 0.733,-8.174 0.733,-12.752 0,-4.537 -0.407,-8.801 -1.221,-12.788 -0.814,-3.988 -2.263,-7.634 -4.346,-10.94 -2.084,-3.306 -4.916,-6.256 -8.496,-8.849 -3.581,-2.594 -8.138,-4.798 -13.672,-6.614 -5.534,-1.815 -12.191,-3.192 -19.97,-4.131 -7.781,-0.941 -16.879,-1.411 -27.295,-1.411 h -25 c -9.375,0 -17.578,0.359 -24.61,1.075 -7.031,0.716 -13.086,1.806 -18.164,3.271 -5.078,1.465 -9.277,3.32 -12.597,5.566 -3.321,2.247 -5.974,4.883 -7.959,7.911 -1.987,3.027 -3.369,6.477 -4.151,10.351 -0.781,3.873 -1.172,8.154 -1.172,12.842 h 18.75 c 0,-5.951 0.846,-10.612 2.539,-13.984 1.693,-3.372 4.493,-5.903 8.399,-7.589 3.906,-1.686 9.033,-2.743 15.381,-3.174 6.347,-0.43 14.209,-0.644 23.584,-0.644 h 25 c 10.937,0 20.019,0.524 27.246,1.574 7.226,1.047 12.988,2.718 17.285,5.013 4.297,2.295 7.324,5.294 9.082,8.999 1.758,3.704 2.637,8.212 2.637,13.522 0,5.31 -0.603,9.735 -1.807,13.275 -1.205,3.54 -3.581,6.359 -7.129,8.457 -3.549,2.096 -8.545,3.589 -14.99,4.473 -6.445,0.886 -14.877,1.328 -25.293,1.328 h -25.781 c -11.459,0 -21.274,0.423 -29.444,1.27 -8.171,0.845 -15.023,2.065 -20.556,3.662 -5.534,1.594 -9.961,3.579 -13.282,5.957 -3.32,2.376 -5.843,5.093 -7.568,8.154 -1.725,3.06 -2.848,6.46 -3.369,10.205 -0.521,3.743 -0.781,7.796 -0.781,12.158 0,4.556 0.406,8.789 1.22,12.696 0.814,3.906 2.328,7.437 4.541,10.595 2.213,3.157 5.241,5.972 9.082,8.448 3.841,2.473 8.773,4.541 14.795,6.201 6.022,1.66 13.265,2.913 21.729,3.759 8.463,0.846 18.424,1.27 29.883,1.27 h 18.75 c 9.375,0 17.578,-0.342 24.609,-1.025 7.031,-0.684 13.086,-1.758 18.164,-3.223 5.078,-1.465 9.293,-3.288 12.647,-5.469 3.352,-2.182 6.021,-4.785 8.007,-7.812 1.986,-3.028 3.37,-6.462 4.151,-10.303 0.781,-3.842 1.172,-8.105 1.172,-12.793 h -18.75 c 0,5.859 -0.847,10.449 -2.539,13.77 -1.694,3.32 -4.492,5.81 -8.399,7.47 -3.906,1.66 -9.05,2.701 -15.429,3.125 -6.381,0.423 -14.258,0.635 -23.633,0.635 h -18.75 c -12.5,0 -22.787,-0.439 -30.86,-1.318 -8.073,-0.879 -14.453,-2.361 -19.14,-4.444 -4.688,-2.084 -7.944,-4.883 -9.766,-8.398 -1.823,-3.516 -2.734,-7.91 -2.734,-13.184 0,-3.256 0.227,-6.152 0.683,-8.691 0.455,-2.539 1.383,-4.77 2.784,-6.69 1.399,-1.921 3.369,-3.532 5.908,-4.834 2.539,-1.303 5.891,-2.377 10.058,-3.222 4.166,-0.847 9.261,-1.45 15.284,-1.807 C -41.293,0.179 -34.115,0 -25.781,0 Z" /></g></g></g><g
       id="g36"><g
         clip-path="url(#clipPath42)"
         id="g38"><g
           transform="translate(104.9948,309.5346)"
           id="g44"><path
             id="path46"
             style="fill:#efa73b;fill-opacity:1;fill-rule:nonzero;stroke:none"
             d="m 0,0 c 10.582,0 12.072,5.812 12.072,11.029 0,4.173 -0.596,8.346 -1.193,12.519 -0.596,4.173 -1.192,8.197 -1.192,12.37 0,13.711 8.942,19.523 21.61,19.523 h 3.13 v -8.196 h -2.683 c -8.792,0 -11.773,-4.77 -11.773,-12.818 0,-3.427 0.447,-7.004 1.043,-10.581 0.596,-3.726 1.043,-7.303 1.043,-11.327 0.149,-9.538 -4.024,-14.307 -10.73,-16.096 v -0.298 c 6.706,-1.639 10.879,-6.707 10.73,-16.245 0,-4.024 -0.447,-7.75 -1.043,-11.327 -0.596,-3.726 -1.043,-7.153 -1.043,-10.73 0,-8.346 3.427,-12.966 11.773,-12.966 h 2.683 v -8.197 h -3.13 c -12.369,0 -21.61,5.365 -21.61,20.418 0,4.024 0.596,8.197 1.192,12.22 0.597,4.025 1.193,8.049 1.193,12.072 0,4.621 -1.49,11.029 -12.072,11.029 z" /></g><g
           transform="translate(193.1237,250.7636)"
           id="g48"><path
             id="path50"
             style="fill:#efa73b;fill-opacity:1;fill-rule:nonzero;stroke:none"
             d="m 0,0 c -10.582,0 -12.072,-6.409 -12.072,-11.029 0,-4.024 0.596,-8.048 1.192,-12.072 0.597,-4.024 1.193,-8.197 1.193,-12.221 0,-15.053 -9.39,-20.418 -21.61,-20.418 h -3.13 v 8.197 h 2.533 c 8.346,0.149 11.923,4.62 11.923,12.967 0,3.576 -0.596,7.004 -1.043,10.73 -0.596,3.577 -1.192,7.303 -1.192,11.326 0,9.539 4.173,14.606 10.73,16.245 v 0.299 c -6.557,1.788 -10.73,6.557 -10.73,16.095 0,4.025 0.596,7.601 1.192,11.328 0.447,3.576 1.043,7.153 1.043,10.581 0,8.048 -3.13,12.668 -11.774,12.817 h -2.682 v 8.197 h 2.98 c 12.669,0 21.76,-5.813 21.76,-19.524 0,-4.173 -0.596,-8.196 -1.193,-12.37 -0.596,-4.173 -1.192,-8.346 -1.192,-12.519 C -12.072,13.413 -10.582,7.6 0,7.6 Z" /></g></g></g></g></svg>